<svg xmlns="http://www.w3.org/2000/svg" viewBox="0 0 410.87109 410.8711" height="512" width="512"><defs><style>.a{fill:#c69;fill-rule:evenodd;}.b{fill:#fff;}</style></defs><path class="a" d="M305.436,191c113.45849,0,205.43509,91.97711,205.43509,205.43551,0,113.459-91.9766,205.43559-205.43509,205.43559C191.9771,601.8711,100,509.89451,100,396.43551,100,282.97711,191.9771,191,305.436,191Z" transform="translate(-100 -191)"/><path class="b" d="M434.29879,278.92921c-9.3027-36.4858-69.80079-48.4805-127.0586-28.1387-34.07519,12.106-70.9643,31.106-97.48819,55.9156-31.5367,29.4975-36.566,55.1723-34.4932,65.89989,7.312,37.854,59.17969,62.59711,80.501,80.95451v.1114c-6.2871,3.0947-52.3033,26.3828-63.07279,50.1914-11.3628,25.1172,1.8086,43.1406,10.52929,45.5664,27.0186,7.5176,54.7446-6.0039,69.645-28.2285,14.3784-21.4483,13.18171-49.1446,6.9331-62.9209,8.6192-2.2744,18.669-3.293,31.44-1.8018,36.0371,4.209,43.1074,26.711,41.7558,36.127-1.3515,9.4179-8.9101,14.5957-11.4375,16.1582-2.5273,1.5644-3.2988,2.1054-3.0859,3.2675.3066,1.6895,1.4766,1.627,3.6309,1.26179,2.9668-.5,18.9238-7.66019,19.6054-25.043.8692-22.07029-20.2812-46.75779-57.73-46.11329-15.4233.2666-25.121,1.7334-32.1264,4.3399-.5181-.5899-1.0449-1.1768-1.5899-1.7579-23.15179-24.7011-65.9511-42.1738-64.1357-75.3803.6602-12.0723,4.8564-43.8613,82.2388-82.4209,63.39011-31.5869,114.1362-22.8946,122.9057-3.6309,12.52741,27.5215-27.1211,78.6729-92.9511,86.0518-25.0811,2.8115-38.2876-6.9092-41.5728-10.5293-3.4585-3.8115-3.9736-3.9834-5.2651-3.26811-2.1031,1.16511-.7701,4.53031,0,6.53571,1.9658,5.1152,10.0312,14.186,23.7822,18.6987,12.0967,3.9697,41.5439,6.1504,77.15721-7.6245C412.30079,357.72221,443.44729,314.80371,434.29879,278.92921Zm-169.6894,185.938c2.9883,11.0557,2.66061,21.3662-.4268,30.7031q-.5142,1.55565-1.1304,3.0762-.6159,1.519-1.3305,3.0019a57.39214,57.39214,0,0,1-9.4883,13.8321c-11.9365,13.02149-28.6133,17.9453-35.7642,13.7968-7.7221-4.4765-3.8545-22.8359,9.9849-37.4648,14.8877-15.7383,36.3086-25.8574,36.3086-25.8574l-.0322-.0645Q263.65479,465.39261,264.60939,464.86721Z" transform="translate(-100 -191)"/></svg>