<svg width="284" height="145" viewBox="0 0 284 145" fill="none" xmlns="http://www.w3.org/2000/svg">
<path d="M95.5971 83.6574C93.4839 88.9326 92.3567 99.3626 94.4699 99.4831C94.6112 88.0944 95.5971 83.6574 95.5971 83.6574ZM90.3096 65.3238C90.3096 65.3238 84.7289 77.3148 84.5651 91.1177C84.5057 96.1369 84.5703 99.4831 84.5703 99.4831H86.2556C86.2556 99.4831 86.0502 78.6532 90.3096 65.3238ZM74.7746 99.4831C74.7746 99.4831 73.788 65.3238 69.2804 56.5402C69.2804 56.5402 73.1792 83.3077 72.8496 99.4831C74.07 99.4831 74.7746 99.4831 74.7746 99.4831ZM58.753 66.8581C58.753 66.8581 61.7114 81.4975 61.57 91.1177C61.4287 96.1369 61.5753 99.4831 61.5753 99.4831H63.2606C63.2606 99.4831 64.9518 77.1742 58.753 66.8581ZM48.8527 81.0792C48.8527 81.0792 49.8387 86.2356 49.98 99.4831C52.0931 99.3425 50.9659 87.2127 48.8527 81.0792ZM122.884 57.8653C120.537 73.88 102.766 74.1895 102.766 74.1895L102.458 103.719H39.9088L39.7226 74.5609C39.7226 74.5609 25.0117 71.9158 23.0703 62.8845C21.7165 56.587 22.4865 47.2814 31.0045 41.1345C45.057 30.9906 57.4817 42.7875 57.4817 42.7875C57.4817 42.7875 57.5523 38.1229 48.551 35.1449C52.7271 27.1225 74.2813 19.5936 86.187 31.3386C96.0091 41.0308 96.3744 49.4346 94.5755 54.7701C99.0772 49.7425 98.5932 40.3665 92.6321 33.9536C109.432 29.5618 125.472 40.2059 122.884 57.8653ZM39.8382 105.513H102.528V119.734H39.8382V105.513Z" fill="#100F0D"/>
<path d="M95.5971 83.6574C93.4839 88.9326 92.3567 99.3626 94.4699 99.4831C94.6112 88.0944 95.5971 83.6574 95.5971 83.6574ZM90.3096 65.3238C90.3096 65.3238 84.7289 77.3148 84.5651 91.1177C84.5057 96.1369 84.5703 99.4831 84.5703 99.4831H86.2556C86.2556 99.4831 86.0502 78.6532 90.3096 65.3238ZM74.7746 99.4831C74.7746 99.4831 73.788 65.3238 69.2804 56.5402C69.2804 56.5402 73.1792 83.3077 72.8496 99.4831C74.07 99.4831 74.7746 99.4831 74.7746 99.4831ZM58.753 66.8581C58.753 66.8581 61.7114 81.4975 61.57 91.1177C61.4287 96.1369 61.5753 99.4831 61.5753 99.4831H63.2606C63.2606 99.4831 64.9518 77.1742 58.753 66.8581ZM48.8527 81.0792C48.8527 81.0792 49.8387 86.2356 49.98 99.4831C52.0931 99.3425 50.9659 87.2127 48.8527 81.0792ZM122.884 57.8653C120.537 73.88 102.766 74.1895 102.766 74.1895L102.458 103.719H39.9088L39.7226 74.5609C39.7226 74.5609 25.0117 71.9158 23.0703 62.8845C21.7165 56.587 22.4865 47.2814 31.0045 41.1345C45.057 30.9906 57.4817 42.7875 57.4817 42.7875C57.4817 42.7875 57.5523 38.1229 48.551 35.1449C52.7271 27.1225 74.2813 19.5936 86.187 31.3386C96.0091 41.0308 96.3744 49.4346 94.5755 54.7701C99.0772 49.7425 98.5932 40.3665 92.6321 33.9536C109.432 29.5618 125.472 40.2059 122.884 57.8653ZM39.8382 105.513H102.528V119.734H39.8382V105.513Z" fill="url(#paint0_linear_5_395)"/>
<path d="M153.454 87.29V61.7254H156.7V57.6654H145.7V61.7254H148.901V87.29H153.454Z" fill="#ECE5F0"/>
<path d="M175.134 63.51C175.134 59.7177 173.105 57.4869 169.589 57.4869C166.072 57.4869 164.044 59.6731 164.044 63.4208V81.6685C164.044 85.4162 166.027 87.5131 169.634 87.5131C173.15 87.5131 175.134 85.5946 175.134 81.7131V63.51ZM170.626 82.0254C170.626 82.9177 170.265 83.3639 169.589 83.3639C168.913 83.3639 168.597 82.9177 168.597 82.0254V63.0192C168.597 62.1269 168.913 61.6808 169.589 61.6808C170.265 61.6808 170.626 62.1269 170.626 63.0192V82.0254Z" fill="#ECE5F0"/>
<path d="M194.766 87.29L191.971 68.8639L194.811 57.6654H190.212C188.59 65.0716 188.229 66.5439 188.049 67.8823H187.868V57.6654H183.18V87.29H187.868V78.9916L188.59 76.0916H188.725L190.122 87.29H194.766Z" fill="#ECE5F0"/>
<path d="M206.999 87.29V57.6654H202.401V87.29H206.999Z" fill="#ECE5F0"/>
<path d="M223.896 87.29V83.23H219.658V73.8162H223.129V69.7116H219.658V61.7254H223.625V57.6654H215.15V87.29H223.896Z" fill="#ECE5F0"/>
<path d="M242.686 66.41V63.51C242.686 59.8516 241.244 57.4869 237.187 57.4869C233.58 57.4869 231.642 59.3608 231.642 62.7069V65.2054C231.642 67.6592 232.047 69.0423 232.859 70.4254C233.896 72.21 235.609 73.5485 237.051 75.11C237.953 76.0916 238.268 76.6269 238.268 78.8131V82.07C238.268 82.8731 237.908 83.3639 237.096 83.3639C236.285 83.3639 235.834 82.8731 235.834 82.07V78.4116H231.506V81.7131C231.506 85.55 233.265 87.5131 237.277 87.5131C241.334 87.5131 243.092 85.5054 243.092 81.7577V77.7869C243.092 75.3777 242.686 74.2177 241.83 73.0577C240.703 71.5854 238.674 70.2023 237.096 68.4177C236.285 67.5254 236.15 67.0792 236.15 65.4285V62.8408C236.15 62.1716 236.51 61.6808 237.277 61.6808C237.998 61.6808 238.404 62.1269 238.404 62.9746V66.41H242.686Z" fill="#ECE5F0"/>
<path d="M258.214 87.29V61.7254H261.46V57.6654H250.46V61.7254H253.661V87.29H258.214Z" fill="#ECE5F0"/>
<defs>
<linearGradient id="paint0_linear_5_395" x1="72.8501" y1="119.734" x2="72.8501" y2="25.266" gradientUnits="userSpaceOnUse">
<stop stop-color="#59114D"/>
<stop offset="1" stop-color="#E98A15"/>
</linearGradient>
</defs>
</svg>
