<svg id="visual" viewBox="0 0 900 600" width="900" height="600" xmlns="http://www.w3.org/2000/svg" xmlns:xlink="http://www.w3.org/1999/xlink" version="1.1"><g><g transform="translate(779 154)"><path d="M0 -57.1L49.4 -28.5L49.4 28.5L0 57.1L-49.4 28.5L-49.4 -28.5Z" fill="none" stroke="#FF7F11" stroke-width="2"></path></g><g transform="translate(457 108)"><path d="M0 -56L48.5 -28L48.5 28L0 56L-48.5 28L-48.5 -28Z" fill="none" stroke="#FF7F11" stroke-width="2"></path></g><g transform="translate(306 109)"><path d="M0 -40L34.6 -20L34.6 20L0 40L-34.6 20L-34.6 -20Z" stroke="#FF7F11" fill="none" stroke-width="2"></path></g><g transform="translate(814 519)"><path d="M0 -40L34.6 -20L34.6 20L0 40L-34.6 20L-34.6 -20Z" stroke="#FF7F11" fill="none" stroke-width="2"></path></g><g transform="translate(529 308)"><path d="M0 -49L42.4 -24.5L42.4 24.5L0 49L-42.4 24.5L-42.4 -24.5Z" stroke="#FF7F11" fill="none" stroke-width="2"></path></g><g transform="translate(75 276)"><path d="M0 -37L32 -18.5L32 18.5L0 37L-32 18.5L-32 -18.5Z" stroke="#FF7F11" fill="none" stroke-width="2"></path></g><g transform="translate(733 292)"><path d="M0 -46L39.8 -23L39.8 23L0 46L-39.8 23L-39.8 -23Z" stroke="#FF7F11" fill="none" stroke-width="2"></path></g><g transform="translate(525 521)"><path d="M0 -44L38.1 -22L38.1 22L0 44L-38.1 22L-38.1 -22Z" stroke="#FF7F11" fill="none" stroke-width="2"></path></g><g transform="translate(159 537)"><path d="M0 -55L47.6 -27.5L47.6 27.5L0 55L-47.6 27.5L-47.6 -27.5Z" stroke="#FF7F11" fill="none" stroke-width="2"></path></g></g></svg>