<?xml version="1.0" encoding="UTF-8"?><svg id="a" xmlns="http://www.w3.org/2000/svg" viewBox="0 0 128 128"><defs><style>.c{fill:#ff7f11;}.c,.d{stroke-width:0px;}.e{stroke-linecap:square;}.e,.f,.g{fill:none;stroke:#000;stroke-miterlimit:10;}.e,.g{stroke-width:7px;}.f{stroke-width:6px;}</style></defs><line class="f" x1="97.17" y1="18.57" x2="97.17" y2="76.25"/><polygon class="c" points="61.25 15.59 62.87 21.59 27.83 21.57 27.83 15.57 61.25 15.59"/><path class="f" d="M97.17,76.25c0,18.32-14.85,33.17-33.17,33.17s-33.17-14.85-33.17-33.17"/><line class="g" x1="43.19" y1="30.79" x2="43.19" y2="76.26"/><line class="e" x1="84.8" y1="30.79" x2="43.19" y2="30.79"/><path class="g" d="M84.8,76.26c0,11.49-9.31,20.8-20.8,20.8-11.49,0-20.8-9.31-20.8-20.8"/><polygon class="d" points="100.17 15.57 100.17 21.57 70.81 21.61 66.8 21.61 65.17 15.57 100.17 15.57"/></svg>